# xmcd
#
# Track frame offsets:
#	183
#	13865
#	30968
#
# Disc length: 734 seconds
#
# Revision: 0
# Processed by: cddbd v1.5.2PL0 Copyright (c) Steve Scherf et al.
# Submitted via: SynApp - FreeCDDB Version: 2.5
#
DISCID=1602dc03
DTITLE=Truck Stop - Männer mit Hut
DYEAR=1993
DGENRE=Country
TTITLE0=Truck Stop - Männer mit Hut
TTITLE1=Immer noch verrückt
TTITLE2=Truck Stop - Hit-Medley
EXTD=
EXTT0=
EXTT1=
EXTT2=
PLAYORDER=
